# xmcd
#
# Track frame offsets:
#	150
#	14958
#	28363
#	43471
#	64980
#	76442
#	92106
#	109330
#	128964
#	144585
#
# Disc length: 2145 seconds
#
# Revision: 1
# Processed by: cddbd v1.5.2PL0 Copyright (c) Steve Scherf et al.
# Submitted via: audiograbber 1.83.01
#
DISCID=9e085f0a
DTITLE=Kellie Pickler - Kellie Pickler
DYEAR=2008
DGENRE=Country
TTITLE0=Don't You Know You're Beautiful
TTITLE1=I'm Your Woman
TTITLE2=Rocks Instead Of Rice
TTITLE3=Didn't You Know How Much I Loved You
TTITLE4=Lucky Girl
TTITLE5=One Last Time
TTITLE6=Best Days Of Your Life
TTITLE7=Somebody To Love Me
TTITLE8=Makin' Me Fall In Love Again
TTITLE9=Going Out In Style
EXTD=
EXTT0=
EXTT1=
EXTT2=
EXTT3=
EXTT4=
EXTT5=
EXTT6=
EXTT7=
EXTT8=
EXTT9=
PLAYORDER=
